<svg width="35" height="35" viewBox="0 0 35 35" fill="none" xmlns="http://www.w3.org/2000/svg">
<circle cx="17.5" cy="17.5" r="17.5" fill="white"/>
<path d="M20.8353 25.5V19.6953H22.7789L23.0698 17.4387H20.8353V15.998C20.8353 15.3447 21.0167 14.8994 21.9536 14.8994L23.1486 14.8989V12.8806C22.9418 12.8532 22.2326 12.7917 21.4073 12.7917C19.6844 12.7917 18.505 13.8433 18.505 15.7746V17.4387H16.5564V19.6953H18.505V25.5H11.3333C10.8731 25.5 10.5 25.1269 10.5 24.6667V11.3333C10.5 10.8731 10.8731 10.5 11.3333 10.5H24.6667C25.1269 10.5 25.5 10.8731 25.5 11.3333V24.6667C25.5 25.1269 25.1269 25.5 24.6667 25.5H20.8353Z" fill="#006A50"/>
</svg>
