<svg width="35" height="35" viewBox="0 0 35 35" fill="none" xmlns="http://www.w3.org/2000/svg">
<circle cx="17.5" cy="17.5" r="17.5" fill="white"/>
<path d="M23.2801 23.2825H21.0588V19.8018C21.0588 18.9718 21.042 17.9037 19.9013 17.9037C18.7432 17.9037 18.5663 18.8069 18.5663 19.7406V23.2825H16.3451V16.125H18.4788V17.1006H18.5076C18.8057 16.5381 19.5307 15.9444 20.6138 15.9444C22.8645 15.9444 23.2807 17.4257 23.2807 19.3538L23.2801 23.2825ZM13.8364 15.1456C13.1214 15.1456 12.547 14.5669 12.547 13.855C12.547 13.1437 13.122 12.5656 13.8364 12.5656C14.5489 12.5656 15.1264 13.1437 15.1264 13.855C15.1264 14.5669 14.5482 15.1456 13.8364 15.1456ZM14.9501 23.2825H12.7226V16.125H14.9501V23.2825ZM24.3913 10.5H11.6076C10.9957 10.5 10.5007 10.9838 10.5007 11.5806V24.4194C10.5007 25.0168 10.9957 25.5 11.6076 25.5H24.3895C25.0007 25.5 25.5007 25.0168 25.5007 24.4194V11.5806C25.5007 10.9838 25.0007 10.5 24.3895 10.5H24.3913Z" fill="#006A50"/>
</svg>
