<svg width="35" height="35" viewBox="0 0 35 35" fill="none" xmlns="http://www.w3.org/2000/svg">
<circle cx="17.5" cy="17.5" r="17.5" fill="white"/>
<path d="M26.5104 12.7134C25.8743 12.9948 25.1996 13.1796 24.5088 13.2618C25.2366 12.8261 25.7812 12.1407 26.0411 11.3334C25.3573 11.7397 24.6088 12.0256 23.8282 12.1788C23.1693 11.4759 22.2483 11.0775 21.2848 11.0786C19.3605 11.0786 17.7998 12.6388 17.7998 14.564C17.7998 14.8371 17.8311 15.102 17.8897 15.3576C14.9921 15.2117 12.4251 13.825 10.7057 11.7162C10.3961 12.2481 10.2334 12.8526 10.2342 13.4681C10.2342 14.6772 10.8497 15.7444 11.7846 16.3692C11.2311 16.3517 10.6899 16.2022 10.206 15.9331C10.2055 15.9477 10.2055 15.9624 10.2055 15.9762C10.2055 17.6653 11.4068 19.0743 13.0017 19.3942C12.7023 19.4752 12.3936 19.5162 12.0835 19.5159C11.8583 19.5159 11.6398 19.4952 11.4273 19.4544C11.8711 20.8387 13.1574 21.8466 14.683 21.8742C13.4484 22.8432 11.9239 23.3688 10.3545 23.3666C10.0768 23.3668 9.79925 23.3504 9.52344 23.3176C11.1167 24.3418 12.9713 24.8854 14.8654 24.8834C21.2763 24.8834 24.7817 19.5729 24.7817 14.9676C24.7817 14.8169 24.778 14.6657 24.7713 14.5166C25.4536 14.0237 26.0425 13.4131 26.5104 12.7134Z" fill="#006A50"/>
</svg>
