<svg width="57" height="57" viewBox="0 0 57 57" fill="none" xmlns="http://www.w3.org/2000/svg">
<g filter="url(#filter0_d_1756_168)">
<circle cx="28.5" cy="26.8065" r="18" fill="white"/>
</g>
<g clip-path="url(#clip0_1756_168)">
<path d="M25.3157 16.9972C23.2174 17.7251 21.4079 19.1067 20.1529 20.939C18.8979 22.7713 18.2636 24.9578 18.3431 27.1772C18.4226 29.3967 19.2117 31.5322 20.5946 33.27C21.9774 35.0079 23.8811 36.2564 26.0261 36.8324C27.765 37.2811 29.5869 37.3008 31.3351 36.8898C32.9188 36.5341 34.383 35.7731 35.5843 34.6815C36.8346 33.5107 37.7421 32.0212 38.2093 30.3732C38.717 28.5811 38.8073 26.6965 38.4735 24.864H28.7085V28.9147H34.3637C34.2507 29.5608 34.0085 30.1774 33.6516 30.7277C33.2947 31.2779 32.8305 31.7505 32.2867 32.1172C31.5962 32.5742 30.8177 32.8816 30.0013 33.0196C29.1825 33.1718 28.3427 33.1718 27.5239 33.0196C26.694 32.8482 25.909 32.5056 25.2189 32.0139C24.1101 31.229 23.2775 30.1139 22.84 28.8278C22.3952 27.5175 22.3952 26.0971 22.84 24.7869C23.1514 23.8685 23.6662 23.0323 24.3461 22.3407C25.124 21.5348 26.109 20.9587 27.1928 20.6756C28.2766 20.3926 29.4175 20.4135 30.4902 20.7362C31.3282 20.9933 32.0946 21.4428 32.728 22.0487C33.3657 21.4143 34.0022 20.7783 34.6377 20.1406C34.9658 19.7978 35.3235 19.4713 35.6467 19.1202C34.6796 18.2203 33.5445 17.5201 32.3064 17.0596C30.0517 16.2409 27.5846 16.2189 25.3157 16.9972Z" fill="white"/>
<path d="M25.3154 16.9973C27.5841 16.2184 30.0512 16.2398 32.3061 17.058C33.5444 17.5216 34.679 18.2253 35.6447 19.1284C35.3166 19.4795 34.9704 19.8077 34.6358 20.1489C33.9992 20.7844 33.3632 21.4177 32.7277 22.0488C32.0943 21.4428 31.3279 20.9934 30.4899 20.7363C29.4175 20.4125 28.2767 20.3903 27.1926 20.6722C26.1085 20.9541 25.1229 21.5291 24.3441 22.3342C23.6643 23.0258 23.1495 23.862 22.838 24.7804L19.437 22.1472C20.6544 19.7331 22.7621 17.8865 25.3154 16.9973Z" fill="#E33629"/>
<path d="M18.535 24.7557C18.7176 23.8497 19.0211 22.9723 19.4373 22.1471L22.8383 24.7869C22.3935 26.0971 22.3935 27.5175 22.8383 28.8277C21.7052 29.7027 20.5715 30.5821 19.4373 31.4658C18.3958 29.3926 18.0781 27.0304 18.535 24.7557Z" fill="#F8BD00"/>
<path d="M28.7082 24.8624H38.4732C38.8071 26.6949 38.7167 28.5795 38.2091 30.3716C37.7419 32.0196 36.8344 33.5091 35.5841 34.6799C34.4865 33.8235 33.384 32.9737 32.2865 32.1173C32.8306 31.7502 33.2951 31.2771 33.652 30.7262C34.0089 30.1754 34.2509 29.5581 34.3635 28.9115H28.7082C28.7066 27.5629 28.7082 26.2127 28.7082 24.8624Z" fill="#587DBD"/>
<path d="M19.4355 31.4659C20.5698 30.5909 21.7034 29.7115 22.8366 28.8278C23.2749 30.1143 24.1087 31.2295 25.2188 32.0139C25.911 32.5034 26.6978 32.8431 27.5288 33.0114C28.3475 33.1636 29.1873 33.1636 30.0061 33.0114C30.8225 32.8734 31.601 32.566 32.2915 32.109C33.3891 32.9654 34.4916 33.8153 35.5891 34.6717C34.388 35.7639 32.9238 36.5254 31.3399 36.8816C29.5917 37.2926 27.7698 37.2729 26.0309 36.8242C24.6555 36.4569 23.3709 35.8096 22.2574 34.9227C21.079 33.9869 20.1165 32.8078 19.4355 31.4659Z" fill="#006A50"/>
</g>
<defs>
<filter id="filter0_d_1756_168" x="0.5" y="0.806519" width="56" height="56" filterUnits="userSpaceOnUse" color-interpolation-filters="sRGB">
<feFlood flood-opacity="0" result="BackgroundImageFix"/>
<feColorMatrix in="SourceAlpha" type="matrix" values="0 0 0 0 0 0 0 0 0 0 0 0 0 0 0 0 0 0 127 0" result="hardAlpha"/>
<feOffset dy="2"/>
<feGaussianBlur stdDeviation="5"/>
<feComposite in2="hardAlpha" operator="out"/>
<feColorMatrix type="matrix" values="0 0 0 0 0.0117647 0 0 0 0 0.0705882 0 0 0 0 0.054902 0 0 0 0.15 0"/>
<feBlend mode="normal" in2="BackgroundImageFix" result="effect1_dropShadow_1756_168"/>
<feBlend mode="normal" in="SourceGraphic" in2="effect1_dropShadow_1756_168" result="shape"/>
</filter>
<clipPath id="clip0_1756_168">
<rect width="21" height="21" fill="white" transform="translate(18 16.3065)"/>
</clipPath>
</defs>
</svg>
