<svg width="25" height="24" viewBox="0 0 25 24" fill="none" xmlns="http://www.w3.org/2000/svg">
<g clip-path="url(#clip0_1917_2006)">
<path d="M3.65037 13.6406C3.25985 11.5328 3.63454 9.35478 4.70699 7.49862C5.77944 5.64246 7.47921 4.23005 9.50037 3.51562V10.2656L3.65037 13.6406Z" stroke="#525353" stroke-width="2" stroke-linecap="round" stroke-linejoin="round"/>
<path d="M12.5004 12.0394V3C14.0772 3.00024 15.6263 3.41475 16.9925 4.20202C18.3588 4.9893 19.4942 6.12171 20.2851 7.48585C21.076 8.84999 21.4946 10.398 21.499 11.9748C21.5034 13.5516 21.0935 15.1019 20.3102 16.4705C19.527 17.839 18.3979 18.9778 17.0361 19.7727C15.6743 20.5676 14.1276 20.9908 12.5508 20.9999C10.974 21.0089 9.42245 20.6036 8.0516 19.8243C6.68075 19.0451 5.53867 17.9195 4.73975 16.56L12.5004 12.0394Z" stroke="#525353" stroke-width="2" stroke-linecap="round" stroke-linejoin="round"/>
</g>
<defs>
<clipPath id="clip0_1917_2006">
<rect width="24" height="24" fill="white" transform="translate(0.500488)"/>
</clipPath>
</defs>
</svg>
