<svg width="47" height="47" viewBox="0 0 47 47" fill="none" xmlns="http://www.w3.org/2000/svg">
<g filter="url(#filter0_d_1576_3854)">
<rect x="3.69727" y="2.26074" width="40" height="40" rx="4" fill="#FFC145"/>
</g>
<g clip-path="url(#clip0_1576_3854)">
<path d="M13.6094 14.2351C14.9369 13.6801 16.8404 13.0816 18.6914 12.8956C20.6864 12.6946 22.3784 12.9901 23.3594 14.0236V28.6426C21.9569 27.8476 20.1794 27.7381 18.5399 27.9031C16.7699 28.0831 14.9849 28.5946 13.6094 29.1196V14.2351ZM24.8594 14.0236C25.8404 12.9901 27.5324 12.6946 29.5274 12.8956C31.3784 13.0816 33.2819 13.6801 34.6094 14.2351V29.1196C33.2324 28.5946 31.4489 28.0816 29.6789 27.9046C28.0379 27.7381 26.2619 27.8461 24.8594 28.6426V14.0236ZM24.1094 12.6676C22.6319 11.3971 20.4899 11.2081 18.5399 11.4031C16.2689 11.6326 13.9769 12.4111 12.5489 13.0606C12.4178 13.1202 12.3067 13.2162 12.2288 13.3373C12.1509 13.4583 12.1094 13.5992 12.1094 13.7431V30.2431C12.1094 30.3686 12.1409 30.4921 12.2011 30.6022C12.2612 30.7124 12.348 30.8057 12.4535 30.8736C12.559 30.9415 12.6799 30.9818 12.805 30.9909C12.9302 31 13.0556 30.9776 13.1699 30.9256C14.4929 30.3256 16.6244 29.6041 18.6899 29.3956C20.8034 29.1826 22.5749 29.5261 23.5244 30.7111C23.5947 30.7987 23.6837 30.8694 23.785 30.918C23.8862 30.9666 23.9971 30.9918 24.1094 30.9918C24.2217 30.9918 24.3325 30.9666 24.4338 30.918C24.535 30.8694 24.6241 30.7987 24.6944 30.7111C25.6439 29.5261 27.4154 29.1826 29.5274 29.3956C31.5944 29.6041 33.7274 30.3256 35.0489 30.9256C35.1631 30.9776 35.2885 31 35.4137 30.9909C35.5389 30.9818 35.6597 30.9415 35.7653 30.8736C35.8708 30.8057 35.9576 30.7124 36.0177 30.6022C36.0778 30.4921 36.1093 30.3686 36.1094 30.2431V13.7431C36.1093 13.5992 36.0679 13.4583 35.9899 13.3373C35.912 13.2162 35.8009 13.1202 35.6699 13.0606C34.2419 12.4111 31.9499 11.6326 29.6789 11.4031C27.7289 11.2066 25.5869 11.3971 24.1094 12.6676Z" fill="#F1FFFB"/>
</g>
<defs>
<filter id="filter0_d_1576_3854" x="0.697266" y="0.260742" width="46" height="46" filterUnits="userSpaceOnUse" color-interpolation-filters="sRGB">
<feFlood flood-opacity="0" result="BackgroundImageFix"/>
<feColorMatrix in="SourceAlpha" type="matrix" values="0 0 0 0 0 0 0 0 0 0 0 0 0 0 0 0 0 0 127 0" result="hardAlpha"/>
<feOffset dy="1"/>
<feGaussianBlur stdDeviation="1.5"/>
<feComposite in2="hardAlpha" operator="out"/>
<feColorMatrix type="matrix" values="0 0 0 0 0.980799 0 0 0 0 0.980799 0 0 0 0 0.980799 0 0 0 1 0"/>
<feBlend mode="normal" in2="BackgroundImageFix" result="effect1_dropShadow_1576_3854"/>
<feBlend mode="normal" in="SourceGraphic" in2="effect1_dropShadow_1576_3854" result="shape"/>
</filter>
<clipPath id="clip0_1576_3854">
<rect width="24" height="24" fill="white" transform="translate(12.1094 9.99316)"/>
</clipPath>
</defs>
</svg>
