<svg width="47" height="47" viewBox="0 0 47 47" fill="none" xmlns="http://www.w3.org/2000/svg">
<g filter="url(#filter0_d_1576_3839)">
<rect x="3.21289" y="2.26758" width="40" height="40" rx="4" fill="#772CA2"/>
</g>
<path d="M23.6251 12.25C23.1563 12.25 22.6906 12.4075 22.2893 12.6955L21.0473 13.5625L19.6163 13.75H19.5931L19.5698 13.7733C19.1003 13.8789 18.6705 14.1156 18.3302 14.4559C17.9899 14.7962 17.7532 15.226 17.6476 15.6955L17.6251 15.7188V15.742L17.4376 17.1955L16.5706 18.3205L16.5466 18.3438V18.367C16.0223 19.2048 15.9991 20.2863 16.5706 21.0858L17.4608 22.3278L17.6956 23.6178L15.2813 27.2965L14.5081 28.4455H18.0938L18.9608 30.4608L19.5001 31.75L20.2733 30.5778L22.6403 27.0153C23.2763 27.2762 23.9941 27.3003 24.6098 27.0153L26.9768 30.5778L27.7501 31.75L28.2893 30.4608L29.1563 28.4455H32.7421L31.9688 27.2965L29.6251 23.7347L29.8126 22.3285L30.6796 21.0865L30.7036 21.0633V21.04C31.2278 20.2023 31.2511 19.144 30.6796 18.3445L29.8126 17.1017L29.5313 15.6955H29.5546C29.5516 15.6775 29.5343 15.6655 29.5313 15.6483C29.3963 14.6673 28.6201 13.8707 27.6331 13.75H27.6091L26.2028 13.5625L24.9608 12.6955C24.573 12.4112 24.1059 12.2554 23.6251 12.25ZM23.6251 13.7733C23.7976 13.7733 23.9678 13.8257 24.0938 13.9142L25.4296 14.875L25.5938 14.992L25.7813 15.016L27.4223 15.25H27.4448C27.7823 15.2875 28.0163 15.5223 28.0546 15.8598V15.9062L28.3598 17.5705L28.3823 17.7347L28.5001 17.875L29.4608 19.2108C29.6401 19.4598 29.6633 19.882 29.4376 20.242L28.3831 21.7188L28.3591 21.9062L28.1251 23.5472V23.5697C28.1124 23.6869 28.0723 23.7995 28.0081 23.8983L27.9608 23.9222V23.9447C27.8493 24.0786 27.6895 24.163 27.5161 24.1795H27.4688L25.7581 24.4847L25.5706 24.5072L25.4296 24.625L24.0938 25.5858C23.8448 25.765 23.3993 25.7882 23.0393 25.5625L21.8206 24.625L21.6796 24.508L21.4688 24.484L19.8278 24.25H19.8053C19.6993 24.2403 19.5972 24.2055 19.5075 24.1483C19.4177 24.0912 19.3429 24.0134 19.2893 23.9215C19.2397 23.8349 19.2078 23.7393 19.1956 23.6403V23.5938L18.8911 21.883L18.8671 21.6955L18.7501 21.5545L17.7893 20.2188C17.6101 19.9697 17.5868 19.5243 17.8126 19.1642L18.7501 17.9455L18.8671 17.8045L18.8903 17.5938L19.1018 16.0233C19.1048 16.012 19.1221 16.012 19.1251 16C19.1722 15.8197 19.2666 15.6551 19.3984 15.5233C19.5302 15.3915 19.6947 15.2972 19.8751 15.25C19.8871 15.247 19.8871 15.2297 19.8983 15.2267L21.4688 15.0152L21.6563 14.9928L21.8206 14.875L23.1563 13.9142C23.2823 13.8265 23.4526 13.7733 23.6251 13.7733ZM28.8046 25.1875L29.9536 26.9455H28.1476L27.9601 27.4142L27.4448 28.609L25.8511 26.1715L26.2021 25.9142L27.6796 25.6562V25.6795C27.6968 25.6765 27.7081 25.6593 27.7261 25.6562C28.1208 25.5993 28.4937 25.4374 28.8046 25.1875ZM18.4456 25.2108C18.7712 25.5068 19.1804 25.6952 19.6171 25.75H19.6403L21.0706 25.9375L21.3983 26.1955L19.8046 28.609L19.2893 27.4142L19.1018 26.9455H17.2973L18.4456 25.2108Z" fill="#F1FFFB"/>
<defs>
<filter id="filter0_d_1576_3839" x="0.212891" y="0.267578" width="46" height="46" filterUnits="userSpaceOnUse" color-interpolation-filters="sRGB">
<feFlood flood-opacity="0" result="BackgroundImageFix"/>
<feColorMatrix in="SourceAlpha" type="matrix" values="0 0 0 0 0 0 0 0 0 0 0 0 0 0 0 0 0 0 127 0" result="hardAlpha"/>
<feOffset dy="1"/>
<feGaussianBlur stdDeviation="1.5"/>
<feComposite in2="hardAlpha" operator="out"/>
<feColorMatrix type="matrix" values="0 0 0 0 0.980799 0 0 0 0 0.980799 0 0 0 0 0.980799 0 0 0 1 0"/>
<feBlend mode="normal" in2="BackgroundImageFix" result="effect1_dropShadow_1576_3839"/>
<feBlend mode="normal" in="SourceGraphic" in2="effect1_dropShadow_1576_3839" result="shape"/>
</filter>
</defs>
</svg>
