<svg width="25" height="24" viewBox="0 0 25 24" fill="none" xmlns="http://www.w3.org/2000/svg">
<g clip-path="url(#clip0_2487_3152)">
<path d="M10.2505 4.5H5.75049C5.33627 4.5 5.00049 4.83579 5.00049 5.25V9.75C5.00049 10.1642 5.33627 10.5 5.75049 10.5H10.2505C10.6647 10.5 11.0005 10.1642 11.0005 9.75V5.25C11.0005 4.83579 10.6647 4.5 10.2505 4.5Z" stroke="#0A39CF" stroke-width="2" stroke-linecap="round" stroke-linejoin="round"/>
<path d="M19.2505 4.5H14.7505C14.3363 4.5 14.0005 4.83579 14.0005 5.25V9.75C14.0005 10.1642 14.3363 10.5 14.7505 10.5H19.2505C19.6647 10.5 20.0005 10.1642 20.0005 9.75V5.25C20.0005 4.83579 19.6647 4.5 19.2505 4.5Z" stroke="#0A39CF" stroke-width="2" stroke-linecap="round" stroke-linejoin="round"/>
<path d="M10.2505 13.5H5.75049C5.33627 13.5 5.00049 13.8358 5.00049 14.25V18.75C5.00049 19.1642 5.33627 19.5 5.75049 19.5H10.2505C10.6647 19.5 11.0005 19.1642 11.0005 18.75V14.25C11.0005 13.8358 10.6647 13.5 10.2505 13.5Z" stroke="#0A39CF" stroke-width="2" stroke-linecap="round" stroke-linejoin="round"/>
<path d="M19.2505 13.5H14.7505C14.3363 13.5 14.0005 13.8358 14.0005 14.25V18.75C14.0005 19.1642 14.3363 19.5 14.7505 19.5H19.2505C19.6647 19.5 20.0005 19.1642 20.0005 18.75V14.25C20.0005 13.8358 19.6647 13.5 19.2505 13.5Z" stroke="#0A39CF" stroke-width="2" stroke-linecap="round" stroke-linejoin="round"/>
</g>
<defs>
<clipPath id="clip0_2487_3152">
<rect width="24" height="24" fill="white" transform="translate(0.500488)"/>
</clipPath>
</defs>
</svg>
