<svg width="24" height="25" viewBox="0 0 24 25" fill="none" xmlns="http://www.w3.org/2000/svg">
<g clip-path="url(#clip0_1795_3893)">
<path d="M12 13.625C12.6213 13.625 13.125 13.1213 13.125 12.5C13.125 11.8787 12.6213 11.375 12 11.375C11.3787 11.375 10.875 11.8787 10.875 12.5C10.875 13.1213 11.3787 13.625 12 13.625Z" fill="#01100A"/>
<path d="M18.375 13.625C18.9963 13.625 19.5 13.1213 19.5 12.5C19.5 11.8787 18.9963 11.375 18.375 11.375C17.7537 11.375 17.25 11.8787 17.25 12.5C17.25 13.1213 17.7537 13.625 18.375 13.625Z" fill="#01100A"/>
<path d="M5.625 13.625C6.24632 13.625 6.75 13.1213 6.75 12.5C6.75 11.8787 6.24632 11.375 5.625 11.375C5.00368 11.375 4.5 11.8787 4.5 12.5C4.5 13.1213 5.00368 13.625 5.625 13.625Z" fill="#01100A"/>
</g>
<defs>
<clipPath id="clip0_1795_3893">
<rect width="24" height="24" fill="white" transform="translate(0 0.5)"/>
</clipPath>
</defs>
</svg>
