<svg width="32" height="32" viewBox="0 0 32 32" fill="none" xmlns="http://www.w3.org/2000/svg">
<rect x="0.75" y="0.890625" width="30.5" height="30.5" rx="5.25" stroke="#525353" stroke-width="0.5"/>
<path d="M20.9564 9.54845L23.0744 11.6655M22.3184 7.68345L16.5914 13.4105C16.2955 13.706 16.0937 14.0824 16.0114 14.4925L15.4824 17.1405L18.1304 16.6105C18.5404 16.5285 18.9164 16.3275 19.2124 16.0315L24.9394 10.3045C25.1115 10.1324 25.248 9.92805 25.3412 9.70319C25.4343 9.47833 25.4822 9.23733 25.4822 8.99395C25.4822 8.75057 25.4343 8.50957 25.3412 8.28471C25.248 8.05986 25.1115 7.85555 24.9394 7.68345C24.7673 7.51135 24.563 7.37484 24.3382 7.2817C24.1133 7.18856 23.8723 7.14062 23.6289 7.14062C23.3855 7.14063 23.1445 7.18856 22.9197 7.2817C22.6948 7.37484 22.4905 7.51135 22.3184 7.68345Z" stroke="#FFC145" stroke-width="2" stroke-linecap="round" stroke-linejoin="round"/>
<path d="M23.4824 19.1406V22.1406C23.4824 22.6711 23.2717 23.1798 22.8966 23.5548C22.5216 23.9299 22.0129 24.1406 21.4824 24.1406H10.4824C9.95199 24.1406 9.44328 23.9299 9.06821 23.5548C8.69314 23.1798 8.48242 22.6711 8.48242 22.1406V11.1406C8.48242 10.6102 8.69314 10.1015 9.06821 9.72641C9.44328 9.35134 9.95199 9.14062 10.4824 9.14062H13.4824" stroke="#FFC145" stroke-width="2" stroke-linecap="round" stroke-linejoin="round"/>
</svg>
