<svg width="40" height="40" viewBox="0 0 40 40" fill="none" xmlns="http://www.w3.org/2000/svg">
<circle cx="20" cy="20" r="20" fill="#FB1515"/>
<g clip-path="url(#clip0_1970_6123)">
<path d="M17.2951 21.6182C17.2599 21.7379 17.1955 21.847 17.1075 21.9355C17.0196 22.024 16.911 22.0892 16.7915 22.1252L12.1314 23.4496C11.9763 23.4966 11.8102 23.4921 11.6579 23.4368C11.5055 23.3815 11.3752 23.2783 11.2865 23.1428C10.6984 22.2153 10.4671 21.1059 10.6358 20.0207C10.8044 18.9355 11.3614 17.9485 12.2032 17.2433C14.7936 15.0697 18.1413 14.0142 21.51 14.3089C24.8786 14.6036 27.9922 16.2244 30.1658 18.8148C30.8724 19.6555 31.2495 20.7242 31.2271 21.8222C31.2048 22.9202 30.7844 23.9726 30.0442 24.7839C29.9332 24.9019 29.787 24.9809 29.6274 25.0089C29.4678 25.0369 29.3034 25.0125 29.1588 24.9393L24.797 22.8229C24.6867 22.7671 24.5919 22.6849 24.521 22.5836C24.4501 22.4823 24.4053 22.3651 24.3907 22.2423L24.3941 19.1297C24.3797 19.0019 24.3322 18.88 24.2565 18.776C24.1808 18.6719 24.0795 18.5894 23.9623 18.5363C22.3481 17.8188 20.0494 17.6316 18.3364 18.0667C18.2115 18.0992 18.0972 18.1637 18.0048 18.2539C17.9125 18.3441 17.8452 18.4568 17.8097 18.5809L17.2951 21.6182Z" stroke="#F5F5F5" stroke-width="2" stroke-linecap="round" stroke-linejoin="round"/>
</g>
<defs>
<clipPath id="clip0_1970_6123">
<rect width="24" height="24" fill="white" transform="translate(37.8594 22.1494) rotate(140)"/>
</clipPath>
</defs>
</svg>
