<svg width="25" height="24" viewBox="0 0 25 24" fill="none" xmlns="http://www.w3.org/2000/svg">
<g clip-path="url(#clip0_2114_1530)">
<path d="M12.5005 18C13.1218 18 13.6255 17.4963 13.6255 16.875C13.6255 16.2537 13.1218 15.75 12.5005 15.75C11.8792 15.75 11.3755 16.2537 11.3755 16.875C11.3755 17.4963 11.8792 18 12.5005 18Z" fill="#205924"/>
<path d="M12.5005 13.5V12.75C14.1571 12.75 15.5005 11.5744 15.5005 10.125C15.5005 8.67562 14.1571 7.5 12.5005 7.5C10.8439 7.5 9.50049 8.67562 9.50049 10.125V10.5" stroke="#205924" stroke-width="2" stroke-linecap="round" stroke-linejoin="round"/>
<path d="M12.5005 21C17.4711 21 21.5005 16.9706 21.5005 12C21.5005 7.02944 17.4711 3 12.5005 3C7.52993 3 3.50049 7.02944 3.50049 12C3.50049 16.9706 7.52993 21 12.5005 21Z" stroke="#205924" stroke-width="2" stroke-linecap="round" stroke-linejoin="round"/>
</g>
<defs>
<clipPath id="clip0_2114_1530">
<rect width="24" height="24" fill="white" transform="translate(0.500488)"/>
</clipPath>
</defs>
</svg>
