<svg width="40" height="40" viewBox="0 0 40 40" fill="none" xmlns="http://www.w3.org/2000/svg">
<circle cx="20" cy="20" r="20" fill="#F5F5F5"/>
<g clip-path="url(#clip0_1970_6135)">
<path d="M15.875 22.7168C18.5674 22.7168 20.75 20.5342 20.75 17.8418C20.75 15.1494 18.5674 12.9668 15.875 12.9668C13.1826 12.9668 11 15.1494 11 17.8418C11 20.5342 13.1826 22.7168 15.875 22.7168Z" stroke="#525353" stroke-width="2" stroke-linecap="round" stroke-linejoin="round"/>
<path d="M8.95898 26.4668C9.70813 25.315 10.7331 24.3685 11.9409 23.7132C13.1486 23.058 14.5009 22.7148 15.8749 22.7148C17.249 22.7148 18.6012 23.058 19.809 23.7132C21.0167 24.3685 22.0417 25.315 22.7909 26.4668" stroke="#525353" stroke-width="2" stroke-linecap="round" stroke-linejoin="round"/>
<path d="M24.125 22.7168C25.499 22.716 26.8513 23.0586 28.0592 23.7135C29.267 24.3685 30.292 25.3149 31.0409 26.4668" stroke="#525353" stroke-width="2" stroke-linecap="round" stroke-linejoin="round"/>
<path d="M22.3147 13.3137C22.9816 13.0477 23.6989 12.9323 24.4156 12.9757C25.1322 13.0191 25.8304 13.2203 26.4602 13.5649C27.0901 13.9094 27.6361 14.3888 28.0592 14.9688C28.4823 15.5489 28.7721 16.2152 28.9078 16.9202C29.0435 17.6252 29.0219 18.3514 28.8444 19.0471C28.6669 19.7428 28.3379 20.3906 27.881 20.9444C27.4241 21.4982 26.8505 21.9442 26.2012 22.2506C25.5519 22.557 24.843 22.7162 24.125 22.7168" stroke="#525353" stroke-width="2" stroke-linecap="round" stroke-linejoin="round"/>
</g>
<defs>
<clipPath id="clip0_1970_6135">
<rect width="24" height="24" fill="white" transform="translate(8 7.7168)"/>
</clipPath>
</defs>
</svg>
