<svg width="33" height="33" viewBox="0 0 33 33" fill="none" xmlns="http://www.w3.org/2000/svg">
<rect x="1.125" y="1.75" width="30.5" height="30.5" rx="5.25" stroke="#525353" stroke-width="0.5"/>
<path d="M8 24.75C7.45 24.75 6.97917 24.5542 6.5875 24.1625C6.19583 23.7708 6 23.3 6 22.75V10.75C6 10.2 6.19583 9.72917 6.5875 9.3375C6.97917 8.94583 7.45 8.75 8 8.75H24C24.55 8.75 25.0208 8.94583 25.4125 9.3375C25.8042 9.72917 26 10.2 26 10.75V22.75C26 23.3 25.8042 23.7708 25.4125 24.1625C25.0208 24.5542 24.55 24.75 24 24.75H8ZM16 17.75L8 12.75V22.75H24V12.75L16 17.75ZM16 15.75L24 10.75H8L16 15.75ZM8 12.75V10.75V22.75V12.75Z" fill="#525353"/>
<circle cx="30.375" cy="2.5" r="2.5" fill="#FB1515"/>
</svg>
