<svg width="3" height="19" viewBox="0 0 3 19" fill="none" xmlns="http://www.w3.org/2000/svg">
<path d="M1.5 0.140625C0.675 0.140625 0 0.815625 0 1.64062C0 2.46563 0.675 3.14062 1.5 3.14062C2.325 3.14062 3 2.46563 3 1.64062C3 0.815625 2.325 0.140625 1.5 0.140625ZM1.5 15.1406C0.675 15.1406 0 15.8156 0 16.6406C0 17.4656 0.675 18.1406 1.5 18.1406C2.325 18.1406 3 17.4656 3 16.6406C3 15.8156 2.325 15.1406 1.5 15.1406ZM1.5 7.64062C0.675 7.64062 0 8.31563 0 9.14062C0 9.96562 0.675 10.6406 1.5 10.6406C2.325 10.6406 3 9.96562 3 9.14062C3 8.31563 2.325 7.64062 1.5 7.64062Z" fill="#205924"/>
</svg>
