<svg width="33" height="33" viewBox="0 0 33 33" fill="none" xmlns="http://www.w3.org/2000/svg">
<rect x="0.625" y="2.25" width="30.5" height="30.5" rx="5.25" stroke="#525353" stroke-width="0.5"/>
<path d="M15.8951 26.0299C13.5651 26.0299 11.2351 25.6599 9.02511 24.9199C8.18511 24.6299 7.54511 24.0399 7.26511 23.2699C6.97511 22.4999 7.07511 21.6499 7.53511 20.8899L8.68511 18.9799C8.92511 18.5799 9.14511 17.7799 9.14511 17.3099V14.4199C9.14511 10.6999 12.1751 7.66992 15.8951 7.66992C19.6151 7.66992 22.6451 10.6999 22.6451 14.4199V17.3099C22.6451 17.7699 22.8651 18.5799 23.1051 18.9899L24.2451 20.8899C24.6751 21.6099 24.7551 22.4799 24.4651 23.2699C24.1751 24.0599 23.5451 24.6599 22.7551 24.9199C20.5551 25.6599 18.2251 26.0299 15.8951 26.0299ZM15.8951 9.16992C13.0051 9.16992 10.6451 11.5199 10.6451 14.4199V17.3099C10.6451 18.0399 10.3451 19.1199 9.97511 19.7499L8.82511 21.6599C8.60511 22.0299 8.54511 22.4199 8.67511 22.7499C8.79511 23.0899 9.09511 23.3499 9.50511 23.4899C13.6851 24.8899 18.1151 24.8899 22.2951 23.4899C22.6551 23.3699 22.9351 23.0999 23.0651 22.7399C23.1951 22.3799 23.1651 21.9899 22.9651 21.6599L21.8151 19.7499C21.4351 19.0999 21.1451 18.0299 21.1451 17.2999V14.4199C21.1451 11.5199 18.7951 9.16992 15.8951 9.16992Z" fill="#525353"/>
<path d="M17.7551 9.44018C17.6851 9.44018 17.6151 9.43018 17.5451 9.41018C17.2551 9.33018 16.9751 9.27018 16.7051 9.23018C15.8551 9.12018 15.0351 9.18018 14.2651 9.41018C13.9851 9.50018 13.6851 9.41018 13.4951 9.20018C13.3051 8.99018 13.2451 8.69018 13.3551 8.42018C13.7651 7.37018 14.7651 6.68018 15.9051 6.68018C17.0451 6.68018 18.0451 7.36018 18.4551 8.42018C18.5551 8.69018 18.5051 8.99018 18.3151 9.20018C18.1651 9.36018 17.9551 9.44018 17.7551 9.44018Z" fill="#525353"/>
<path d="M15.895 28.3101C14.905 28.3101 13.945 27.9101 13.245 27.2101C12.545 26.5101 12.145 25.5501 12.145 24.5601H13.645C13.645 25.1501 13.885 25.7301 14.305 26.1501C14.725 26.5701 15.305 26.8101 15.895 26.8101C17.135 26.8101 18.145 25.8001 18.145 24.5601H19.645C19.645 26.6301 17.965 28.3101 15.895 28.3101Z" fill="#525353"/>
<circle cx="29.875" cy="3" r="2.5" fill="#FB1515"/>
</svg>
