<svg width="25" height="25" viewBox="0 0 25 25" fill="none" xmlns="http://www.w3.org/2000/svg">
<path d="M12.8951 21.0299C10.5651 21.0299 8.23511 20.6599 6.02511 19.9199C5.18511 19.6299 4.54511 19.0399 4.26511 18.2699C3.97511 17.4999 4.07511 16.6499 4.53511 15.8899L5.68511 13.9799C5.92511 13.5799 6.14511 12.7799 6.14511 12.3099V9.41992C6.14511 5.69992 9.17511 2.66992 12.8951 2.66992C16.6151 2.66992 19.6451 5.69992 19.6451 9.41992V12.3099C19.6451 12.7699 19.8651 13.5799 20.1051 13.9899L21.2451 15.8899C21.6751 16.6099 21.7551 17.4799 21.4651 18.2699C21.1751 19.0599 20.5451 19.6599 19.7551 19.9199C17.5551 20.6599 15.2251 21.0299 12.8951 21.0299ZM12.8951 4.16992C10.0051 4.16992 7.64511 6.51992 7.64511 9.41992V12.3099C7.64511 13.0399 7.34511 14.1199 6.97511 14.7499L5.82511 16.6599C5.60511 17.0299 5.54511 17.4199 5.67511 17.7499C5.79511 18.0899 6.09511 18.3499 6.50511 18.4899C10.6851 19.8899 15.1151 19.8899 19.2951 18.4899C19.6551 18.3699 19.9351 18.0999 20.0651 17.7399C20.1951 17.3799 20.1651 16.9899 19.9651 16.6599L18.8151 14.7499C18.4351 14.0999 18.1451 13.0299 18.1451 12.2999V9.41992C18.1451 6.51992 15.7951 4.16992 12.8951 4.16992Z" fill="#525353"/>
<path d="M14.7551 4.44018C14.6851 4.44018 14.6151 4.43018 14.5451 4.41018C14.2551 4.33018 13.9751 4.27018 13.7051 4.23018C12.8551 4.12018 12.0351 4.18018 11.2651 4.41018C10.9851 4.50018 10.6851 4.41018 10.4951 4.20018C10.3051 3.99018 10.2451 3.69018 10.3551 3.42018C10.7651 2.37018 11.7651 1.68018 12.9051 1.68018C14.0451 1.68018 15.0451 2.36018 15.4551 3.42018C15.5551 3.69018 15.5051 3.99018 15.3151 4.20018C15.1651 4.36018 14.9551 4.44018 14.7551 4.44018Z" fill="#525353"/>
<path d="M12.895 23.3101C11.905 23.3101 10.945 22.9101 10.245 22.2101C9.54502 21.5101 9.14502 20.5501 9.14502 19.5601H10.645C10.645 20.1501 10.885 20.7301 11.305 21.1501C11.725 21.5701 12.305 21.8101 12.895 21.8101C14.135 21.8101 15.145 20.8001 15.145 19.5601H16.645C16.645 21.6301 14.965 23.3101 12.895 23.3101Z" fill="#525353"/>
</svg>
