<svg width="39" height="39" viewBox="0 0 39 39" fill="none" xmlns="http://www.w3.org/2000/svg">
<g filter="url(#filter0_d_1678_3785)">
<rect x="4.5" y="2.9668" width="30" height="30" rx="5" fill="#F5F5F5"/>
</g>
<path d="M19.5001 8.9668C17.0251 8.9668 15.0001 10.9918 15.0001 13.4668C15.0001 14.2228 15.1846 14.9255 15.5161 15.5525C14.1473 15.2188 12.4801 14.9668 10.5001 14.9668H9.53931L12.1643 25.4668H12.7501C15.3046 25.4668 16.8751 25.8328 17.7893 26.1703C18.2468 26.3398 18.5363 26.507 18.7036 26.615C18.8701 26.7238 18.8911 26.7328 18.8911 26.7328L19.1011 26.9668H19.8983L20.1098 26.732C20.1098 26.732 20.1301 26.7238 20.2973 26.615C20.584 26.4328 20.8905 26.2836 21.2108 26.1703C22.1251 25.8328 23.6956 25.4668 26.2501 25.4668H26.8358L29.4608 14.9668H28.5001C26.5283 14.9668 24.8641 15.2038 23.5081 15.5293C23.8368 14.8918 24.0056 14.184 24.0001 13.4668C24.0001 10.9918 21.9751 8.9668 19.5001 8.9668ZM19.5001 10.4668C21.1673 10.4668 22.5001 11.7995 22.5001 13.4668C22.5001 15.134 21.1673 16.4668 19.5001 16.4668C17.8328 16.4668 16.5001 15.134 16.5001 13.4668C16.5001 11.7995 17.8328 10.4668 19.5001 10.4668ZM11.4841 16.5605C13.8166 16.6745 15.7208 17.0788 16.9688 17.5453C17.9738 17.9203 18.4688 18.2098 18.7501 18.3883V24.9508C18.6151 24.8893 18.4921 24.8255 18.3278 24.7633C17.3146 24.3883 15.6503 24.0725 13.3358 24.0133L11.4841 16.5605ZM27.5153 16.5605L25.6643 24.014C23.3498 24.0725 21.6856 24.389 20.6716 24.764C20.5081 24.8255 20.3851 24.8893 20.2501 24.9515V18.389C20.5313 18.2068 21.0233 17.9143 22.0081 17.5453C23.2471 17.0788 25.1543 16.6753 27.5153 16.5605Z" fill="#525353"/>
<defs>
<filter id="filter0_d_1678_3785" x="0.5" y="0.966797" width="38" height="38" filterUnits="userSpaceOnUse" color-interpolation-filters="sRGB">
<feFlood flood-opacity="0" result="BackgroundImageFix"/>
<feColorMatrix in="SourceAlpha" type="matrix" values="0 0 0 0 0 0 0 0 0 0 0 0 0 0 0 0 0 0 127 0" result="hardAlpha"/>
<feOffset dy="2"/>
<feGaussianBlur stdDeviation="2"/>
<feComposite in2="hardAlpha" operator="out"/>
<feColorMatrix type="matrix" values="0 0 0 0 0 0 0 0 0 0 0 0 0 0 0 0 0 0 0.08 0"/>
<feBlend mode="normal" in2="BackgroundImageFix" result="effect1_dropShadow_1678_3785"/>
<feBlend mode="normal" in="SourceGraphic" in2="effect1_dropShadow_1678_3785" result="shape"/>
</filter>
</defs>
</svg>
