<svg width="40" height="41" viewBox="0 0 40 41" fill="none" xmlns="http://www.w3.org/2000/svg">
<circle cx="20" cy="20.5" r="20" fill="#F5F5F5"/>
<g clip-path="url(#clip0_1803_5033)">
<path d="M21.5 20.0288H15.5" stroke="#525353" stroke-width="2" stroke-linecap="round" stroke-linejoin="round"/>
<path d="M12.5457 28.7738C12.493 28.9178 12.4857 29.0745 12.5248 29.2228C12.5639 29.3711 12.6475 29.5039 12.7644 29.6032C12.8813 29.7025 13.0258 29.7636 13.1784 29.7782C13.3311 29.7928 13.4846 29.7603 13.6182 29.685L29.3682 20.6766C29.4854 20.6117 29.5832 20.5166 29.6512 20.4012C29.7192 20.2858 29.7551 20.1543 29.7551 20.0203C29.7551 19.8864 29.7192 19.7548 29.6512 19.6394C29.5832 19.524 29.4854 19.4289 29.3682 19.3641L13.6182 10.3781C13.485 10.3036 13.3322 10.2715 13.1803 10.2862C13.0284 10.3008 12.8845 10.3614 12.768 10.4599C12.6514 10.5585 12.5677 10.6902 12.528 10.8376C12.4882 10.985 12.4944 11.1409 12.5457 11.2847L15.4998 20.0288L12.5457 28.7738Z" stroke="#525353" stroke-width="2" stroke-linecap="round" stroke-linejoin="round"/>
</g>
<defs>
<clipPath id="clip0_1803_5033">
<rect width="24" height="24" fill="white" transform="translate(8 8.02881)"/>
</clipPath>
</defs>
</svg>
