<svg width="25" height="24" viewBox="0 0 25 24" fill="none" xmlns="http://www.w3.org/2000/svg">
<g clip-path="url(#clip0_2487_2629)">
<path d="M10.2505 16.5C11.9073 16.5 13.2505 15.1569 13.2505 13.5C13.2505 11.8431 11.9073 10.5 10.2505 10.5C8.59363 10.5 7.25049 11.8431 7.25049 13.5C7.25049 15.1569 8.59363 16.5 10.2505 16.5Z" stroke="#0A39CF" stroke-width="2" stroke-linecap="round" stroke-linejoin="round"/>
<path d="M5.5058 19.5C5.93129 18.6017 6.60306 17.8426 7.44299 17.3111C8.28292 16.7795 9.25649 16.4973 10.2505 16.4973C11.2445 16.4973 12.2181 16.7795 13.058 17.3111C13.8979 17.8426 14.5697 18.6017 14.9952 19.5H20.7505C20.9494 19.5 21.1402 19.421 21.2808 19.2803C21.4215 19.1397 21.5005 18.9489 21.5005 18.75V5.25C21.5005 5.05109 21.4215 4.86032 21.2808 4.71967C21.1402 4.57902 20.9494 4.5 20.7505 4.5H4.25049C4.05158 4.5 3.86081 4.57902 3.72016 4.71967C3.57951 4.86032 3.50049 5.05109 3.50049 5.25V18.75C3.50049 18.9489 3.57951 19.1397 3.72016 19.2803C3.86081 19.421 4.05158 19.5 4.25049 19.5H5.5058Z" stroke="#0A39CF" stroke-width="2" stroke-linecap="round" stroke-linejoin="round"/>
<path d="M17.0005 16.5H18.5005V7.5H6.50049V9" stroke="#0A39CF" stroke-width="2" stroke-linecap="round" stroke-linejoin="round"/>
</g>
<defs>
<clipPath id="clip0_2487_2629">
<rect width="24" height="24" fill="white" transform="translate(0.500488)"/>
</clipPath>
</defs>
</svg>
