<svg width="25" height="24" viewBox="0 0 25 24" fill="none" xmlns="http://www.w3.org/2000/svg">
<g clip-path="url(#clip0_2487_2679)">
<path d="M12.5005 15.75C14.5716 15.75 16.2505 14.0711 16.2505 12C16.2505 9.92893 14.5716 8.25 12.5005 8.25C10.4294 8.25 8.75049 9.92893 8.75049 12C8.75049 14.0711 10.4294 15.75 12.5005 15.75Z" stroke="#0A39CF" stroke-width="2" stroke-linecap="round" stroke-linejoin="round"/>
<path d="M12.6928 19.3228C12.5671 19.3228 12.4406 19.3228 12.3178 19.3228L9.31307 21C8.14338 20.6065 7.05845 19.9959 6.11526 19.2L6.10401 15.825C6.03745 15.72 5.97464 15.6141 5.91651 15.5053L2.9287 13.8038C2.69336 12.6134 2.69336 11.3885 2.9287 10.1981L5.9137 8.50125C5.97464 8.39344 6.03745 8.28656 6.1012 8.18156L6.1162 4.80656C7.05854 4.00842 8.14318 3.39548 9.31307 3L12.3131 4.67719C12.4387 4.67719 12.5653 4.67719 12.6881 4.67719L15.6881 3C16.8578 3.39346 17.9427 4.00414 18.8859 4.8L18.8971 8.175C18.9637 8.28 19.0265 8.38594 19.0846 8.49469L22.0706 10.1953C22.3059 11.3857 22.3059 12.6106 22.0706 13.8009L19.0856 15.4978C19.0246 15.6056 18.9618 15.7125 18.8981 15.8175L18.8831 19.1925C17.9414 19.9908 16.8574 20.604 15.6881 21L12.6928 19.3228Z" stroke="#0A39CF" stroke-width="2" stroke-linecap="round" stroke-linejoin="round"/>
</g>
<defs>
<clipPath id="clip0_2487_2679">
<rect width="24" height="24" fill="white" transform="translate(0.500488)"/>
</clipPath>
</defs>
</svg>
