<svg width="23" height="17" viewBox="0 0 23 17" fill="none" xmlns="http://www.w3.org/2000/svg">
<path d="M10.5 9.09609L9.6 9.97109C9.41667 10.1544 9.1875 10.2461 8.9125 10.2461C8.6375 10.2461 8.4 10.1461 8.2 9.94609C8.01667 9.76276 7.925 9.52943 7.925 9.24609C7.925 8.96276 8.01667 8.72943 8.2 8.54609L10.8 5.94609C11 5.74609 11.2333 5.64609 11.5 5.64609C11.7667 5.64609 12 5.74609 12.2 5.94609L14.8 8.54609C14.9833 8.72943 15.0792 8.95859 15.0875 9.23359C15.0958 9.50859 15 9.74609 14.8 9.94609C14.6167 10.1294 14.3875 10.2253 14.1125 10.2336C13.8375 10.2419 13.6 10.1544 13.4 9.97109L12.5 9.09609V14.2461H18C18.7 14.2461 19.2917 14.0044 19.775 13.5211C20.2583 13.0378 20.5 12.4461 20.5 11.7461C20.5 11.0461 20.2583 10.4544 19.775 9.97109C19.2917 9.48776 18.7 9.24609 18 9.24609H16.5V7.24609C16.5 5.86276 16.0125 4.68359 15.0375 3.70859C14.0625 2.73359 12.8833 2.24609 11.5 2.24609C10.1167 2.24609 8.9375 2.73359 7.9625 3.70859C6.9875 4.68359 6.5 5.86276 6.5 7.24609H6C5.03333 7.24609 4.20833 7.58776 3.525 8.27109C2.84167 8.95443 2.5 9.77943 2.5 10.7461C2.5 11.7128 2.84167 12.5378 3.525 13.2211C4.20833 13.9044 5.03333 14.2461 6 14.2461H7.5C7.78333 14.2461 8.02083 14.3419 8.2125 14.5336C8.40417 14.7253 8.5 14.9628 8.5 15.2461C8.5 15.5294 8.40417 15.7669 8.2125 15.9586C8.02083 16.1503 7.78333 16.2461 7.5 16.2461H6C4.48333 16.2461 3.1875 15.7211 2.1125 14.6711C1.0375 13.6211 0.5 12.3378 0.5 10.8211C0.5 9.52109 0.891667 8.36276 1.675 7.34609C2.45833 6.32943 3.48333 5.67943 4.75 5.39609C5.16667 3.86276 6 2.62109 7.25 1.67109C8.5 0.721094 9.91667 0.246094 11.5 0.246094C13.45 0.246094 15.1042 0.925261 16.4625 2.28359C17.8208 3.64193 18.5 5.29609 18.5 7.24609C19.65 7.37943 20.6042 7.87526 21.3625 8.73359C22.1208 9.59193 22.5 10.5961 22.5 11.7461C22.5 12.9961 22.0625 14.0586 21.1875 14.9336C20.3125 15.8086 19.25 16.2461 18 16.2461H12.5C11.95 16.2461 11.4792 16.0503 11.0875 15.6586C10.6958 15.2669 10.5 14.7961 10.5 14.2461V9.09609Z" fill="#FFC145"/>
</svg>
